<?xml version="1.0" encoding="utf-8"?>
<!-- Generator: Adobe Illustrator 26.0.1, SVG Export Plug-In . SVG Version: 6.00 Build 0)  -->
<svg version="1.1" id="Layer_1" xmlns="http://www.w3.org/2000/svg" xmlns:xlink="http://www.w3.org/1999/xlink" x="0px" y="0px"
	 viewBox="0 0 476 95.4" style="enable-background:new 0 0 476 95.4;" xml:space="preserve">
<style type="text/css">
	.st0{fill:url(#SVGID_1_);}
	.st1{fill:url(#SVGID_00000093148034727347138950000001138803409724080042_);}
	.st2{fill:#1E2137;}
</style>
<g id="Layer_2_00000084528363723744676940000007830856143381898675_">
	<g id="Layer_1-2">
		<g id="Layer_2-2">
			<g id="Logo">
				
					<linearGradient id="SVGID_1_" gradientUnits="userSpaceOnUse" x1="-1.1112" y1="99.9455" x2="101.9588" y2="72.3055" gradientTransform="matrix(1 0 0 1 0 -33.74)">
					<stop  offset="0" style="stop-color:#2C4AAA"/>
					<stop  offset="4.000000e-02" style="stop-color:#2F50B4"/>
					<stop  offset="0.17" style="stop-color:#3560CD"/>
					<stop  offset="0.31" style="stop-color:#3B6CE1"/>
					<stop  offset="0.46" style="stop-color:#3E74EF"/>
					<stop  offset="0.66" style="stop-color:#4079F8"/>
					<stop  offset="1" style="stop-color:#417BFA"/>
				</linearGradient>
				<path class="st0" d="M44.8,72.3c-7.4,7-20,19-25.3,21.3c-6.5,2.8-16.4,1.6-19-6.8c0,0-2.3-6.1,2.5-14.8S39.6,7.7,39.6,7.7
					s7.8-17.4,17.9,0.1c8.9,15.5,32.3,55.4,37.5,64.7l1.4,2.7c3.7,6.7,1.4,15.1-5.2,19c-7.3,4.2-20.5-3.6-29.1-11.5
					S49,72.2,44.8,72.3"/>
				
					<linearGradient id="SVGID_00000023971705191531856720000008406284898412623498_" gradientUnits="userSpaceOnUse" x1="49.7942" y1="99.1944" x2="99.1342" y2="119.2044" gradientTransform="matrix(1 0 0 1 0 -33.74)">
					<stop  offset="0" style="stop-color:#1D2E6D"/>
					<stop  offset="0.15" style="stop-color:#21357C"/>
					<stop  offset="0.45" style="stop-color:#2B46A3"/>
					<stop  offset="0.86" style="stop-color:#3B62E2"/>
					<stop  offset="1" style="stop-color:#416CFA"/>
				</linearGradient>
				<path style="fill:url(#SVGID_00000023971705191531856720000008406284898412623498_);" d="M44.8,72.3c1.9-2,3.9-3.8,6-5.4
					c6.8-5.1,18.9-12.1,33.2-3.7c21.2,12.6,14.6,26.9,7.4,31s-20.5-3.6-29.1-11.5S49.1,72.2,44.8,72.3z"/>
			</g>
		</g>
	</g>
</g>
<g>
	<path class="st2" d="M149.6,49.4c0-3-0.7-6-2.3-8.7c-3-5.3-8.7-8.5-14.8-8.4c-6.1-0.2-11.8,3-14.8,8.3c-1.5,2.7-2.3,5.7-2.3,8.8
		c-0.1,3,0.7,6.1,2.1,8.8c1.3,2.5,3.2,4.6,5.6,6.1c5,3,11.2,3,16.2,0.1c1.5-0.9,2.7-2.1,3.8-3.4v2.3c0,1.7,1.4,3,3.1,3l0,0h0.2
		c1.7,0,3-1.4,3-3.1c0,0,0,0,0,0L149.6,49.4L149.6,49.4z M142.1,55.2c-0.9,1.7-2.2,3.2-3.9,4.2c-1.7,1-3.6,1.6-5.6,1.6l0,0
		c-2,0-3.9-0.5-5.6-1.6c-1.7-1-3.1-2.5-4-4.2c-1-1.8-1.5-3.9-1.4-5.9c-0.1-2.1,0.4-4.2,1.4-6c0.9-1.7,2.3-3.2,4-4.2
		c3.5-2,7.8-2,11.2,0c1.7,1,3,2.5,3.9,4.2C143.9,47,143.9,51.4,142.1,55.2L142.1,55.2z"/>
	<path class="st2" d="M171.5,66.6c-3.1,0-6.1-0.7-8.8-2.3c-2.5-1.5-4.6-3.6-6.1-6.1c-1.5-2.7-2.3-5.7-2.2-8.8
		c-0.1-3.1,0.7-6.2,2.2-8.9c1.4-2.5,3.4-4.6,5.9-6.1c2.6-1.5,5.6-2.2,8.7-2.1c2.3,0,4.6,0.5,6.7,1.4c2.1,1,4,2.4,5.4,4.2
		c0.5,0.5,0.8,1.3,0.6,2c-0.2,0.8-0.7,1.4-1.4,1.8c-0.6,0.4-1.3,0.6-1.9,0.4c-0.7-0.2-1.4-0.5-1.9-1.1c-1.9-2.1-4.7-3.3-7.6-3.2
		c-2-0.1-3.9,0.4-5.6,1.4c-1.6,1-2.9,2.4-3.8,4c-1,1.9-1.4,4-1.4,6.1c0,2.1,0.5,4.1,1.4,5.9c2,3.5,5.7,5.7,9.7,5.6
		c1.3,0,2.6-0.2,3.8-0.5c1.1-0.4,2.1-0.9,3-1.6c0.6-0.5,1.3-0.8,2-0.9c0.7-0.1,1.4,0.1,1.9,0.6c0.6,0.5,1.1,1.2,1.2,1.9
		c0.1,0.7-0.2,1.5-0.8,2C179.6,65.2,175.6,66.7,171.5,66.6z"/>
	<path class="st2" d="M204.4,66.6c-3.1,0-6.1-0.7-8.8-2.3c-2.5-1.5-4.6-3.6-6-6.1c-1.5-2.7-2.2-5.7-2.2-8.8
		c-0.1-3.1,0.7-6.2,2.2-8.9c1.4-2.5,3.4-4.6,5.9-6.1c2.6-1.5,5.6-2.2,8.7-2.1c2.3,0,4.6,0.5,6.7,1.4c2.1,1,4,2.4,5.4,4.2
		c0.5,0.5,0.8,1.3,0.6,2c-0.2,0.8-0.7,1.4-1.4,1.8c-0.5,0.4-1.2,0.5-1.9,0.3c-0.7-0.2-1.4-0.5-1.9-1.1c-1.9-2.1-4.7-3.3-7.6-3.2
		c-2-0.1-3.9,0.4-5.6,1.4c-1.6,1-2.9,2.4-3.8,4c-1,1.9-1.5,4-1.4,6.1c0,2.1,0.5,4.1,1.4,5.9c0.9,1.7,2.2,3.1,3.9,4.1
		c1.7,1,3.7,1.6,5.7,1.5c1.3,0,2.6-0.2,3.8-0.5c1.1-0.4,2.1-0.9,3-1.6c0.6-0.5,1.3-0.8,2-0.9c0.7-0.1,1.3,0.1,1.9,0.6
		c0.6,0.5,1,1.2,1.2,1.9c0.1,0.7-0.2,1.5-0.7,2C212.4,65.2,208.4,66.7,204.4,66.6z"/>
	<path class="st2" d="M252.7,50.9c0.5-0.5,0.8-1.2,0.8-1.9c0.1-3-0.6-5.9-1.8-8.6c-1.2-2.4-3-4.5-5.3-5.9c-2.5-1.5-5.4-2.2-8.3-2.1
		c-3-0.1-6,0.7-8.7,2.1c-2.5,1.4-4.5,3.5-5.9,6.1c-1.5,2.7-2.2,5.8-2.1,8.9c-0.1,3.1,0.7,6.2,2.2,8.9c1.5,2.6,3.6,4.7,6.2,6.1
		c4.6,2.5,10.1,2.9,15,1.1c1.9-0.6,3.7-1.5,5.2-2.7c0.7-0.4,1-1.1,1-1.9c-0.1-0.8-0.5-1.5-1.1-2c-0.5-0.4-1.2-0.7-1.9-0.7
		c-0.7,0-1.4,0.3-2,0.7c-2.1,1.4-4.6,2.2-7.1,2.3c-2.2,0-4.3-0.5-6.2-1.5c-1.8-1-3.2-2.5-4.2-4.2c-0.7-1.2-1.1-2.5-1.4-3.8h23.5
		C251.4,51.7,252.1,51.4,252.7,50.9z M227.2,46.7c0.2-1.2,0.6-2.3,1.1-3.3c0.8-1.7,2.2-3.2,3.8-4.2c1.8-1.1,3.9-1.6,6-1.5
		c3.7-0.2,7.1,1.9,8.6,5.3c0.6,1.2,0.9,2.5,1.1,3.8H227.2z"/>
	<path class="st2" d="M269,66.3c-1.7,0-3.4-0.5-4.9-1.5c-1.4-1-2.6-2.4-3.3-4.1c-0.8-1.9-1.2-3.9-1.2-5.9V21.1c0-1.7,1.3-3.1,3-3.2
		c1.6,0,3,1.2,3.2,2.8v34.1c-0.1,1.3,0.2,2.6,0.9,3.8c0.4,0.9,1.2,1.4,2.2,1.5h1.5c0.8,0,1.5,0.3,2,0.9c0.5,0.6,0.8,1.4,0.8,2.2
		c0,0.9-0.4,1.7-1.2,2.2c-0.9,0.6-1.9,0.9-3,0.9L269,66.3z"/>
	<path class="st2" d="M307.8,50.9c0.5-0.5,0.8-1.2,0.8-1.9c0.1-3-0.6-5.9-1.8-8.6c-1.2-2.4-3-4.5-5.3-5.9c-2.5-1.5-5.4-2.2-8.3-2.1
		c-3-0.1-6,0.7-8.7,2.1c-2.5,1.4-4.5,3.5-5.9,6.1c-1.5,2.7-2.2,5.8-2.1,8.9c-0.1,3.1,0.7,6.2,2.3,8.9c1.5,2.6,3.6,4.7,6.3,6.1
		c4.6,2.5,10.1,2.9,15,1.1c1.9-0.6,3.7-1.5,5.2-2.7c0.6-0.4,1-1.1,1-1.9c-0.1-0.8-0.5-1.5-1.1-2c-0.5-0.4-1.2-0.7-1.9-0.7
		c-0.7,0-1.4,0.3-2,0.7c-1,0.7-2.1,1.2-3.2,1.6c-1.3,0.5-2.6,0.7-3.9,0.7c-2.2,0-4.3-0.5-6.2-1.5c-1.8-1-3.2-2.5-4.2-4.2
		c-0.7-1.2-1.1-2.5-1.4-3.8h23.5C306.5,51.7,307.2,51.4,307.8,50.9z M282.3,46.7c0.2-1.2,0.6-2.3,1.1-3.3c0.8-1.7,2.2-3.2,3.8-4.2
		c1.8-1.1,3.9-1.6,6-1.5c3.7-0.2,7.1,1.9,8.6,5.3c0.6,1.2,0.9,2.5,1.1,3.8H282.3z"/>
	<path class="st2" d="M343.4,36.5l-13.1,27.7c-0.4,1.2-1.6,2.1-2.9,2.1c-1.3,0-2.5-0.8-3-2l-13.1-27.8c-0.3-0.6-0.4-1.4-0.1-2.1
		c0.3-0.7,0.9-1.3,1.6-1.6c0.6-0.4,1.4-0.4,2.1-0.2c0.7,0.2,1.3,0.7,1.6,1.4l10.8,23.2L338,34.1c0.4-0.7,1-1.2,1.7-1.4
		c0.8-0.2,1.6-0.2,2.3,0.2c1.4,0.5,2,2.1,1.5,3.4C343.4,36.4,343.4,36.5,343.4,36.5L343.4,36.5z"/>
	<path class="st2" d="M378.9,50.8c0.5-0.5,0.8-1.2,0.8-1.9c0.1-3-0.6-5.9-1.8-8.6c-1.2-2.4-3-4.4-5.3-5.8c-2.5-1.5-5.4-2.2-8.3-2.1
		c-3-0.1-6,0.6-8.7,2.1c-2.5,1.4-4.5,3.5-5.9,6.1c-1.5,2.7-2.2,5.8-2.1,8.9c-0.1,3.1,0.7,6.2,2.3,8.9c1.5,2.6,3.7,4.7,6.3,6.1
		c4.7,2.5,10.1,2.9,15.1,1.1c1.9-0.6,3.7-1.5,5.2-2.7c0.6-0.4,1-1.1,1-1.9c-0.1-0.8-0.5-1.5-1.1-2c-0.5-0.5-1.2-0.7-1.9-0.7
		c-0.7,0-1.4,0.3-2,0.7c-1,0.7-2.1,1.3-3.2,1.7c-1.3,0.5-2.6,0.7-3.9,0.7c-2.2,0.1-4.4-0.5-6.4-1.6c-1.8-1-3.2-2.5-4.2-4.2
		c-0.7-1.2-1.1-2.5-1.4-3.9h23.6C377.6,51.7,378.4,51.4,378.9,50.8z M353.4,46.7c0.2-1.1,0.6-2.3,1.1-3.3c0.8-1.7,2.2-3.2,3.8-4.2
		c1.8-1.1,3.9-1.6,6-1.5c3.7-0.2,7.1,1.9,8.6,5.3c0.6,1.2,0.9,2.5,1.1,3.8H353.4z"/>
	<path class="st2" d="M417.6,48v15.2c0.1,1.7-1.3,3.1-3,3.2c0,0,0,0,0,0c-0.1,0-0.1,0-0.2,0c-1.7,0-3.1-1.3-3.1-3V48
		c0.1-2-0.4-4-1.3-5.7c-0.8-1.4-2-2.6-3.5-3.3c-1.6-0.7-3.3-1.1-5-1.1c-1.6,0-3.2,0.3-4.7,1.1c-1.3,0.6-2.5,1.6-3.4,2.8
		c-0.8,1.1-1.2,2.5-1.2,3.9v17.6c0,0.8-0.3,1.7-0.9,2.3c-1.3,1.2-3.3,1.2-4.5-0.1c-0.5-0.5-0.9-1.3-0.9-2V35.6
		c0-0.9,0.3-1.7,0.9-2.3c1.3-1.1,3.2-1.1,4.5,0c0.6,0.6,0.9,1.4,0.9,2.3v0.6c0.9-0.9,2-1.7,3.2-2.3c2.3-1.2,4.8-1.8,7.4-1.8
		c2.7,0,5.3,0.6,7.6,1.8c2.3,1.2,4.1,3.1,5.3,5.4C417.1,42,417.7,45,417.6,48z"/>
	<path class="st2" d="M443.3,63.2c0,0.9-0.3,1.7-1,2.2c-0.7,0.6-1.7,0.9-2.6,0.9h-1.2c-2,0-3.9-0.5-5.6-1.6c-1.7-1.1-3-2.5-3.9-4.3
		c-1-1.9-1.4-4-1.4-6.1V39h-2.9c-0.8,0-1.5-0.2-2.1-0.7c-0.5-0.5-0.8-1.1-0.8-1.8c0-0.8,0.2-1.5,0.8-2c0.6-0.5,1.3-0.8,2.1-0.7h2.9
		v-9c0-1.7,1.4-3.1,3.1-3.1c1.7,0,3.1,1.4,3.1,3.1c0,0,0,0,0,0l0,0v9h5.2c0.8,0,1.5,0.2,2.1,0.7c0.6,0.5,0.9,1.2,0.8,2
		c0,0.7-0.3,1.4-0.8,1.9c-0.6,0.5-1.3,0.8-2.1,0.7h-5.2v15.2c0,1.5,0.5,3,1.4,4.2c0.8,1,2,1.7,3.4,1.7h2.1c0.7,0,1.4,0.3,1.9,0.9
		C443.1,61.6,443.3,62.4,443.3,63.2z"/>
	<path class="st2" d="M462.7,66.6c-2.7,0-5.4-0.5-8-1.4c-2.1-0.7-4.1-1.8-5.7-3.4c-0.6-0.6-0.9-1.4-0.8-2.2c0.1-0.8,0.5-1.6,1.2-2.1
		c0.7-0.6,1.6-0.9,2.5-0.8c0.8,0.1,1.5,0.5,2.1,1.1c1,1,2.1,1.7,3.4,2.2c1.6,0.7,3.4,1,5.2,1c1.9,0.1,3.8-0.3,5.5-1.2
		c1.1-0.6,1.9-1.7,1.9-3c0-1.3-0.6-2.5-1.8-3.2c-2-1.2-4.3-1.9-6.6-2.2c-4.2-0.8-7.2-2-9.1-3.6c-1.8-1.5-2.8-3.7-2.8-6.1
		c-0.1-1.9,0.6-3.8,1.9-5.2c1.3-1.4,2.9-2.5,4.8-3.1c2-0.7,4-1,6.1-1c2.5,0,4.9,0.4,7.2,1.3c1.9,0.7,3.7,2,5,3.6
		c0.5,0.6,0.8,1.3,0.8,2.1c-0.1,0.7-0.5,1.4-1.1,1.8c-0.7,0.5-1.5,0.6-2.3,0.4c-0.9-0.1-1.7-0.5-2.3-1.1c-0.9-0.9-2.1-1.6-3.4-2
		c-1.4-0.4-2.8-0.6-4.2-0.6c-1.6,0-3.2,0.3-4.6,0.9c-1.1,0.4-1.9,1.5-1.9,2.7c0,0.7,0.2,1.4,0.6,2c0.6,0.8,1.5,1.3,2.4,1.6
		c1.6,0.6,3.3,1.1,5,1.4c2.5,0.4,5,1.2,7.3,2.3c1.6,0.7,2.9,1.9,3.9,3.3c0.8,1.3,1.2,2.8,1.2,4.3c0,1.8-0.5,3.6-1.5,5.1
		c-1.1,1.6-2.7,2.9-4.5,3.6C467.7,66.2,465.2,66.7,462.7,66.6z"/>
</g>
</svg>
