<svg xmlns="http://www.w3.org/2000/svg" viewBox="0 0 474 91.41"><defs><style>.cls-1{fill:#fff;}</style></defs><g id="Layer_2" data-name="Layer 2"><g id="Layer_1-2" data-name="Layer 1"><path class="cls-1" d="M85.25,60.91c-.72-.47-1.47-.95-2.24-1.41-11.4-6.75-23-5.5-35.39,3.81a52.61,52.61,0,0,0-6.21,5.55l-1.32,1.25c-7,6.61-18.76,17.68-23.37,19.7a14.69,14.69,0,0,1-11.38.1A9,9,0,0,1,.42,84.18C.34,84-1.39,78.63,2.83,71.09c3.8-6.75,24.1-42.53,32.77-57.81,2.28-4,3.73-6.56,3.84-6.77S42.41.19,46.16,0h.22c2.3,0,4.87,2.36,7.44,6.81,4.51,7.92,12.64,21.87,19.91,34.31C77.92,48.31,82,55.29,85.25,60.91Z"/><path class="cls-1" d="M94.34,80.29a12.28,12.28,0,0,1-6,10.24c-5.81,3.34-18.13-3.3-26.77-11.24C55.21,73.4,50.8,70.26,47,69c1-.88,2-1.71,3-2.48,11-8.23,21.1-9.4,30.93-3.57C92.09,69.59,94.38,76,94.34,80.29Z"/><path class="cls-1" d="M147.54,47.42a17.13,17.13,0,0,0-2.26-8.68,16.68,16.68,0,0,0-14.75-8.43,16.5,16.5,0,0,0-14.78,8.34,17.15,17.15,0,0,0-2.26,8.79,18,18,0,0,0,2.08,8.75,15.76,15.76,0,0,0,5.62,6.12,15.93,15.93,0,0,0,16.24.09A16,16,0,0,0,141.26,59V61.3a3.09,3.09,0,0,0,3.12,3l0,0h.17a3.07,3.07,0,0,0,3-3.16V47.44Zm-7.49,5.8a10.7,10.7,0,0,1-3.9,4.22A10.58,10.58,0,0,1,130.53,59v0a10.62,10.62,0,0,1-5.62-1.57,10.79,10.79,0,0,1-4-4.22,12,12,0,0,1-1.41-5.91,12.17,12.17,0,0,1,1.41-6,11,11,0,0,1,4-4.22,11.23,11.23,0,0,1,11.24,0,10.92,10.92,0,0,1,3.9,4.22,13.22,13.22,0,0,1,0,11.88Z"/><path class="cls-1" d="M169.5,64.58a17.15,17.15,0,0,1-8.82-2.27,16.19,16.19,0,0,1-6.06-6.12,17.29,17.29,0,0,1-2.21-8.75,18.19,18.19,0,0,1,2.17-8.91,15.82,15.82,0,0,1,5.94-6.1,16.94,16.94,0,0,1,8.67-2.12,15.33,15.33,0,0,1,12.13,5.62,2.2,2.2,0,0,1,.61,2,3.21,3.21,0,0,1-1.4,1.85,2.33,2.33,0,0,1-1.93.39,3.6,3.6,0,0,1-1.91-1.08,10,10,0,0,0-7.54-3.2,10.61,10.61,0,0,0-5.62,1.4,10.14,10.14,0,0,0-3.77,4.05,13,13,0,0,0-1.4,6.13,12.41,12.41,0,0,0,1.4,5.94A11,11,0,0,0,169.5,59a12.62,12.62,0,0,0,3.81-.53,9.46,9.46,0,0,0,3-1.63,3.61,3.61,0,0,1,2-.9,2.36,2.36,0,0,1,1.85.59,2.93,2.93,0,0,1,1.18,1.94,2.31,2.31,0,0,1-.74,2A15.67,15.67,0,0,1,169.5,64.58Z"/><path class="cls-1" d="M202.35,64.58a17.21,17.21,0,0,1-8.83-2.27,16.23,16.23,0,0,1-6.05-6.12,17.42,17.42,0,0,1-2.19-8.75,18,18,0,0,1,2.16-8.91,15.73,15.73,0,0,1,5.93-6.1A16.94,16.94,0,0,1,202,30.31a15.64,15.64,0,0,1,6.67,1.4,16.05,16.05,0,0,1,5.45,4.22,2.21,2.21,0,0,1,.62,2,3.21,3.21,0,0,1-1.4,1.85,2.29,2.29,0,0,1-1.87.32,3.66,3.66,0,0,1-1.93-1.08,10,10,0,0,0-7.54-3.2,10.52,10.52,0,0,0-5.62,1.4,10,10,0,0,0-3.78,4.05,13,13,0,0,0-1.41,6.13,12.41,12.41,0,0,0,1.41,5.94A10.51,10.51,0,0,0,202.26,59a12.58,12.58,0,0,0,3.81-.53,9.46,9.46,0,0,0,3-1.63,3.67,3.67,0,0,1,2.05-.9,2.38,2.38,0,0,1,1.86.59,3,3,0,0,1,1.17,1.94,2.28,2.28,0,0,1-.75,2A15.65,15.65,0,0,1,202.35,64.58Z"/><path class="cls-1" d="M250.67,48.9a2.59,2.59,0,0,0,.8-1.94,19.52,19.52,0,0,0-1.83-8.64,13.9,13.9,0,0,0-5.28-5.88,15.56,15.56,0,0,0-8.29-2.13,16.94,16.94,0,0,0-8.67,2.12,15.71,15.71,0,0,0-5.9,6.07,18.19,18.19,0,0,0-2.14,8.94,17.33,17.33,0,0,0,2.25,8.87,16.13,16.13,0,0,0,6.25,6.07,18.7,18.7,0,0,0,15,1.13,17,17,0,0,0,5.23-2.73,2.15,2.15,0,0,0,1-1.91,2.91,2.91,0,0,0-1.11-2,2.74,2.74,0,0,0-1.88-.66,3.59,3.59,0,0,0-2,.72,13.15,13.15,0,0,1-7.17,2.35,12.31,12.31,0,0,1-6.25-1.55,11.22,11.22,0,0,1-4.22-4.21,12.15,12.15,0,0,1-1.36-3.81h23.51A2.83,2.83,0,0,0,250.67,48.9Zm-25.5-4.25a13.46,13.46,0,0,1,1.06-3.33,9.91,9.91,0,0,1,3.8-4.21,11.33,11.33,0,0,1,6-1.55,9,9,0,0,1,8.6,5.29,13.28,13.28,0,0,1,1.11,3.8Z"/><path class="cls-1" d="M266.93,64.32a8.2,8.2,0,0,1-4.84-1.47,10.08,10.08,0,0,1-3.28-4.06,14.24,14.24,0,0,1-1.18-5.9V19.07a3.11,3.11,0,0,1,6.2-.42,2.94,2.94,0,0,1,0,.42V52.79a7.33,7.33,0,0,0,.86,3.76A2.53,2.53,0,0,0,266.92,58h1.55a2.58,2.58,0,0,1,2,.87,3.23,3.23,0,0,1,.78,2.22,2.67,2.67,0,0,1-1.18,2.24,4.92,4.92,0,0,1-3,.85Z"/><path class="cls-1" d="M305.78,48.9a2.55,2.55,0,0,0,.8-1.94,19.38,19.38,0,0,0-1.82-8.64,14,14,0,0,0-5.28-5.88,15.58,15.58,0,0,0-8.29-2.13,16.94,16.94,0,0,0-8.67,2.12,15.64,15.64,0,0,0-5.9,6.07,18.3,18.3,0,0,0-2.14,8.94,17.24,17.24,0,0,0,2.26,8.87A15.9,15.9,0,0,0,283,62.38a18.7,18.7,0,0,0,15,1.13,16.92,16.92,0,0,0,5.22-2.73,2.16,2.16,0,0,0,1-1.91,3,3,0,0,0-1.11-2,2.76,2.76,0,0,0-1.88-.66,3.56,3.56,0,0,0-2,.72A12.41,12.41,0,0,1,296,58.53a12,12,0,0,1-3.93.71,12.39,12.39,0,0,1-6.25-1.55,11.29,11.29,0,0,1-4.22-4.21,11.91,11.91,0,0,1-1.36-3.81h23.52A2.78,2.78,0,0,0,305.78,48.9Zm-25.5-4.25a13.49,13.49,0,0,1,1.07-3.33,9.82,9.82,0,0,1,3.81-4.21,11.27,11.27,0,0,1,6-1.55,9,9,0,0,1,8.59,5.29,13.3,13.3,0,0,1,1.12,3.8Z"/><path class="cls-1" d="M341.41,34.52l-13.1,27.67a3,3,0,0,1-2.86,2.08,3.24,3.24,0,0,1-2.95-2L309.37,34.52a2.51,2.51,0,0,1-.09-2.06,2.85,2.85,0,0,1,1.58-1.58,2.56,2.56,0,0,1,2.13-.19,2.93,2.93,0,0,1,1.65,1.4l10.75,23.19L336,32.09a2.92,2.92,0,0,1,1.7-1.4,3.07,3.07,0,0,1,2.32.19,2.64,2.64,0,0,1,1.36,3.64Z"/><path class="cls-1" d="M376.9,48.83a2.56,2.56,0,0,0,.82-1.94,19.66,19.66,0,0,0-1.83-8.64,13.93,13.93,0,0,0-5.34-5.81,15.53,15.53,0,0,0-8.29-2.13,16.78,16.78,0,0,0-8.68,2.12,15.67,15.67,0,0,0-5.91,6.07,18.19,18.19,0,0,0-2.14,8.94,17.24,17.24,0,0,0,2.26,8.87,15.89,15.89,0,0,0,6.34,6.07,18.88,18.88,0,0,0,15.09,1.14,16.9,16.9,0,0,0,5.22-2.72,2.18,2.18,0,0,0,1-1.91,2.92,2.92,0,0,0-1.12-2,2.71,2.71,0,0,0-1.88-.66,3.63,3.63,0,0,0-2,.71,12.44,12.44,0,0,1-3.25,1.65,12,12,0,0,1-3.93.7,12.34,12.34,0,0,1-6.35-1.56,11.22,11.22,0,0,1-4.22-4.21,11.54,11.54,0,0,1-1.37-3.88h23.56A2.78,2.78,0,0,0,376.9,48.83Zm-25.53-4.18a14.19,14.19,0,0,1,1.06-3.33,9.87,9.87,0,0,1,3.81-4.21,11.26,11.26,0,0,1,6-1.55,9,9,0,0,1,8.6,5.29,13.3,13.3,0,0,1,1.12,3.8Z"/><path class="cls-1" d="M415.6,46V61.22a3.07,3.07,0,0,1-3,3.17.67.67,0,0,1-.2,0,3.07,3.07,0,0,1-3.13-3V46A11.3,11.3,0,0,0,408,40.26a8.05,8.05,0,0,0-3.5-3.31,11.34,11.34,0,0,0-5-1.08,10.33,10.33,0,0,0-4.7,1.06,8.69,8.69,0,0,0-3.35,2.81,6.81,6.81,0,0,0-1.23,3.9V61.22a3.13,3.13,0,0,1-.88,2.26,3.2,3.2,0,0,1-5.43-2.09V33.64a3,3,0,0,1,.9-2.29,3.41,3.41,0,0,1,4.53,0,3.14,3.14,0,0,1,.88,2.29v.6a13.22,13.22,0,0,1,3.16-2.34,15,15,0,0,1,7.36-1.79,15.72,15.72,0,0,1,7.63,1.83,13,13,0,0,1,5.32,5.39A17.59,17.59,0,0,1,415.6,46Z"/><path class="cls-1" d="M441.32,61.19a2.81,2.81,0,0,1-1,2.23,4,4,0,0,1-2.64.86l-1.17,0a10.06,10.06,0,0,1-5.62-1.57A11.19,11.19,0,0,1,427,58.41a13,13,0,0,1-1.4-6.13V37.05h-2.85a3,3,0,0,1-2.11-.73,2.41,2.41,0,0,1-.8-1.79,2.52,2.52,0,0,1,.8-2,2.94,2.94,0,0,1,2.11-.74h2.85v-9a3.09,3.09,0,1,1,6.18,0h0v9h5.25a3,3,0,0,1,2.1.74,2.53,2.53,0,0,1,.81,2,2.4,2.4,0,0,1-.81,1.86,3,3,0,0,1-2.1.73l-5.25,0v15.2a6.38,6.38,0,0,0,1.4,4.15,4.23,4.23,0,0,0,3.35,1.67h2.11a2.45,2.45,0,0,1,1.88.87A3.16,3.16,0,0,1,441.32,61.19Z"/><path class="cls-1" d="M460.69,64.58a23.36,23.36,0,0,1-8-1.41A15.29,15.29,0,0,1,447,59.8a2.69,2.69,0,0,1-.77-2.25,3,3,0,0,1,1.21-2.08,3.18,3.18,0,0,1,2.44-.83,3.38,3.38,0,0,1,2.07,1.08,9.69,9.69,0,0,0,3.37,2.2,12.89,12.89,0,0,0,5.17,1,10.35,10.35,0,0,0,5.48-1.18,3.63,3.63,0,0,0,1.94-3,3.78,3.78,0,0,0-1.76-3.22,17.07,17.07,0,0,0-6.64-2.22q-6.3-1.18-9.11-3.64a7.82,7.82,0,0,1-2.81-6.07,7.52,7.52,0,0,1,1.86-5.22,11.14,11.14,0,0,1,4.76-3.1,18.16,18.16,0,0,1,6.07-1,18.64,18.64,0,0,1,7.23,1.31,12.06,12.06,0,0,1,5,3.58,2.81,2.81,0,0,1,.8,2.08,2.38,2.38,0,0,1-1,1.81,3,3,0,0,1-2.35.44,4.4,4.4,0,0,1-2.29-1.11,8.55,8.55,0,0,0-3.34-2,13.39,13.39,0,0,0-4.22-.56,10.48,10.48,0,0,0-4.61.92,2.92,2.92,0,0,0-1.88,2.73,3.6,3.6,0,0,0,.59,2A4.73,4.73,0,0,0,456.55,43a29.21,29.21,0,0,0,5,1.41,27.57,27.57,0,0,1,7.34,2.34,10,10,0,0,1,3.9,3.36A8.31,8.31,0,0,1,474,54.43a9.17,9.17,0,0,1-1.51,5.13A10.32,10.32,0,0,1,468,63.21,17.28,17.28,0,0,1,460.69,64.58Z"/></g></g></svg>