<svg xmlns="http://www.w3.org/2000/svg" xmlns:xlink="http://www.w3.org/1999/xlink" viewBox="0 0 476.01 95.45"><defs><style>.cls-1{fill:url(#linear-gradient);}.cls-2{fill:url(#linear-gradient-2);}.cls-3{fill:#fff;}</style><linearGradient id="linear-gradient" x1="-1.11" y1="404.05" x2="101.96" y2="431.69" gradientTransform="matrix(1, 0, 0, -1, 0, 470.26)" gradientUnits="userSpaceOnUse"><stop offset="0" stop-color="#2c4aaa"/><stop offset="0.04" stop-color="#2f50b4"/><stop offset="0.17" stop-color="#3560cd"/><stop offset="0.31" stop-color="#3b6ce1"/><stop offset="0.46" stop-color="#3e74ef"/><stop offset="0.66" stop-color="#4079f8"/><stop offset="1" stop-color="#417bfa"/></linearGradient><linearGradient id="linear-gradient-2" x1="49.8" y1="404.82" x2="99.14" y2="384.81" gradientTransform="matrix(1, 0, 0, -1, 0, 470.26)" gradientUnits="userSpaceOnUse"><stop offset="0" stop-color="#1d2e6d"/><stop offset="0.15" stop-color="#21357c"/><stop offset="0.45" stop-color="#2b46a3"/><stop offset="0.86" stop-color="#3b62e2"/><stop offset="1" stop-color="#416cfa"/></linearGradient></defs><g id="Layer_2" data-name="Layer 2"><g id="Layer_1-2" data-name="Layer 1"><g id="Layer_2-2" data-name="Layer 2"><g id="Logo"><path class="cls-1" d="M44.8,72.31c-7.44,7-20,19-25.29,21.34C13,96.46,3.13,95.27.55,86.86c0,0-2.31-6.09,2.55-14.75S39.63,7.7,39.63,7.7s7.84-17.41,17.94.14c8.87,15.55,32.32,55.38,37.54,64.74l1.41,2.67a14.12,14.12,0,0,1-5.2,19C84,98.48,70.79,90.67,62.2,82.76S49,72.21,44.73,72.31"/><path class="cls-2" d="M44.8,72.31a51.54,51.54,0,0,1,6-5.4c6.8-5.1,18.93-12.12,33.16-3.69,21.16,12.64,14.64,26.89,7.39,31.05s-20.53-3.6-29.12-11.51S49.06,72.21,44.8,72.31Z"/><path class="cls-3" d="M149.55,49.42a17.13,17.13,0,0,0-2.26-8.68,16.68,16.68,0,0,0-14.75-8.43,16.5,16.5,0,0,0-14.78,8.34,17.15,17.15,0,0,0-2.26,8.79,18,18,0,0,0,2.08,8.75,15.76,15.76,0,0,0,5.62,6.12,15.93,15.93,0,0,0,16.24.09A16,16,0,0,0,143.27,61V63.3a3.09,3.09,0,0,0,3.12,3l0,0h.17a3.07,3.07,0,0,0,3-3.16V49.44Zm-7.49,5.8a10.7,10.7,0,0,1-3.9,4.22A10.58,10.58,0,0,1,132.54,61v0a10.62,10.62,0,0,1-5.62-1.57,10.79,10.79,0,0,1-4-4.22,12,12,0,0,1-1.41-5.91,12.17,12.17,0,0,1,1.41-6,11,11,0,0,1,4-4.22,11.23,11.23,0,0,1,11.24,0,10.92,10.92,0,0,1,3.9,4.22,13.22,13.22,0,0,1,0,11.88Z"/><path class="cls-3" d="M171.52,66.58a17.3,17.3,0,0,1-8.83-2.26,16.26,16.26,0,0,1-6.05-6.13,17.29,17.29,0,0,1-2.21-8.75,18.08,18.08,0,0,1,2.17-8.91,15.82,15.82,0,0,1,5.94-6.1,16.94,16.94,0,0,1,8.67-2.12,15.83,15.83,0,0,1,6.67,1.41,16,16,0,0,1,5.45,4.21,2.21,2.21,0,0,1,.62,2,3.19,3.19,0,0,1-1.41,1.85,2.35,2.35,0,0,1-1.92.4,3.68,3.68,0,0,1-1.91-1.09,10,10,0,0,0-7.55-3.2,10.65,10.65,0,0,0-5.62,1.4,10.18,10.18,0,0,0-3.76,4.05,13,13,0,0,0-1.41,6.13,12.41,12.41,0,0,0,1.41,5.94A10.95,10.95,0,0,0,171.52,61a12.55,12.55,0,0,0,3.8-.53,9.51,9.51,0,0,0,3-1.63,3.58,3.58,0,0,1,2-.9,2.38,2.38,0,0,1,1.86.59,3,3,0,0,1,1.18,1.94,2.28,2.28,0,0,1-.75,2A15.65,15.65,0,0,1,171.52,66.58Z"/><path class="cls-3" d="M204.36,66.58a17.26,17.26,0,0,1-8.82-2.26,16.26,16.26,0,0,1-6-6.13,17.38,17.38,0,0,1-2.2-8.75,18.08,18.08,0,0,1,2.17-8.91,15.73,15.73,0,0,1,5.93-6.1,16.9,16.9,0,0,1,8.66-2.12,15.84,15.84,0,0,1,6.68,1.41,16,16,0,0,1,5.45,4.21,2.24,2.24,0,0,1,.62,2,3.19,3.19,0,0,1-1.41,1.85,2.29,2.29,0,0,1-1.87.32,3.63,3.63,0,0,1-1.92-1.08,10,10,0,0,0-7.55-3.2,10.56,10.56,0,0,0-5.62,1.4,10,10,0,0,0-3.77,4.05,12.93,12.93,0,0,0-1.41,6.13,12.41,12.41,0,0,0,1.41,5.94,10.69,10.69,0,0,0,3.86,4.12A10.8,10.8,0,0,0,204.28,61a12.62,12.62,0,0,0,3.81-.53,9.27,9.27,0,0,0,3-1.63,3.64,3.64,0,0,1,2-.9,2.43,2.43,0,0,1,1.86.59,2.93,2.93,0,0,1,1.16,1.94,2.25,2.25,0,0,1-.74,2A15.68,15.68,0,0,1,204.36,66.58Z"/><path class="cls-3" d="M252.68,50.9a2.59,2.59,0,0,0,.8-1.94,19.52,19.52,0,0,0-1.83-8.64,13.9,13.9,0,0,0-5.28-5.88,15.56,15.56,0,0,0-8.29-2.13,16.94,16.94,0,0,0-8.67,2.12,15.71,15.71,0,0,0-5.9,6.07,18.19,18.19,0,0,0-2.14,8.94,17.33,17.33,0,0,0,2.25,8.87,16.13,16.13,0,0,0,6.25,6.07,18.7,18.7,0,0,0,15,1.13,17,17,0,0,0,5.23-2.73,2.15,2.15,0,0,0,1-1.91,2.91,2.91,0,0,0-1.11-2,2.74,2.74,0,0,0-1.88-.66,3.59,3.59,0,0,0-2,.72A13.15,13.15,0,0,1,239,61.24a12.31,12.31,0,0,1-6.25-1.55,11.22,11.22,0,0,1-4.22-4.21,12.15,12.15,0,0,1-1.36-3.81h23.51A2.83,2.83,0,0,0,252.68,50.9Zm-25.5-4.25a13.46,13.46,0,0,1,1.06-3.33,9.91,9.91,0,0,1,3.8-4.21,11.33,11.33,0,0,1,6-1.55,9,9,0,0,1,8.6,5.29,13.28,13.28,0,0,1,1.11,3.8Z"/><path class="cls-3" d="M269,66.32a8.23,8.23,0,0,1-4.85-1.47,10,10,0,0,1-3.27-4.06,13.93,13.93,0,0,1-1.18-5.9V21.07a3.11,3.11,0,0,1,6.2-.42V54.79a7.32,7.32,0,0,0,.85,3.76A2.53,2.53,0,0,0,268.94,60h1.54a2.58,2.58,0,0,1,2,.88,3.14,3.14,0,0,1,.77,2.22,2.64,2.64,0,0,1-1.18,2.23,4.9,4.9,0,0,1-3,.86Z"/><path class="cls-3" d="M307.79,50.9a2.55,2.55,0,0,0,.8-1.94,19.38,19.38,0,0,0-1.82-8.64,14,14,0,0,0-5.28-5.88,15.58,15.58,0,0,0-8.29-2.13,16.94,16.94,0,0,0-8.67,2.12,15.64,15.64,0,0,0-5.9,6.07,18.3,18.3,0,0,0-2.14,8.94,17.24,17.24,0,0,0,2.26,8.87A15.9,15.9,0,0,0,285,64.38,18.7,18.7,0,0,0,300,65.51a16.92,16.92,0,0,0,5.22-2.73,2.16,2.16,0,0,0,1-1.91,3,3,0,0,0-1.11-2,2.76,2.76,0,0,0-1.88-.66,3.56,3.56,0,0,0-2,.72A12.41,12.41,0,0,1,298,60.53a12,12,0,0,1-3.93.71,12.39,12.39,0,0,1-6.25-1.55,11.29,11.29,0,0,1-4.22-4.21,11.91,11.91,0,0,1-1.36-3.81h23.52A2.78,2.78,0,0,0,307.79,50.9Zm-25.5-4.25a13.49,13.49,0,0,1,1.07-3.33,9.82,9.82,0,0,1,3.81-4.21,11.27,11.27,0,0,1,6-1.55,9,9,0,0,1,8.59,5.29,13.3,13.3,0,0,1,1.12,3.8Z"/><path class="cls-3" d="M343.42,36.52l-13.1,27.67a3,3,0,0,1-2.86,2.08,3.24,3.24,0,0,1-2.95-2L311.38,36.52a2.51,2.51,0,0,1-.09-2.06,2.85,2.85,0,0,1,1.58-1.58,2.56,2.56,0,0,1,2.13-.19,2.93,2.93,0,0,1,1.65,1.4L327.4,57.28,338,34.09a2.92,2.92,0,0,1,1.7-1.4,3.07,3.07,0,0,1,2.32.19,2.64,2.64,0,0,1,1.36,3.64Z"/><path class="cls-3" d="M378.91,50.83a2.56,2.56,0,0,0,.82-1.94,19.66,19.66,0,0,0-1.83-8.64,13.93,13.93,0,0,0-5.34-5.81,15.53,15.53,0,0,0-8.29-2.13,16.78,16.78,0,0,0-8.68,2.12,15.67,15.67,0,0,0-5.91,6.07,18.19,18.19,0,0,0-2.14,8.94,17.24,17.24,0,0,0,2.26,8.87,15.89,15.89,0,0,0,6.34,6.07,18.88,18.88,0,0,0,15.09,1.14,16.9,16.9,0,0,0,5.22-2.72,2.18,2.18,0,0,0,1-1.91,2.92,2.92,0,0,0-1.12-2,2.71,2.71,0,0,0-1.88-.66,3.63,3.63,0,0,0-2,.71,12.44,12.44,0,0,1-3.25,1.65,12,12,0,0,1-3.93.7,12.34,12.34,0,0,1-6.35-1.56,11.22,11.22,0,0,1-4.22-4.21,11.54,11.54,0,0,1-1.37-3.88h23.56A2.78,2.78,0,0,0,378.91,50.83Zm-25.53-4.18a14.19,14.19,0,0,1,1.06-3.33,9.87,9.87,0,0,1,3.81-4.21,11.26,11.26,0,0,1,6-1.55,9,9,0,0,1,8.6,5.29,13.3,13.3,0,0,1,1.12,3.8Z"/><path class="cls-3" d="M417.61,48V63.22a3.07,3.07,0,0,1-3,3.17.67.67,0,0,1-.2,0,3.07,3.07,0,0,1-3.13-3V48A11.3,11.3,0,0,0,410,42.26a8.05,8.05,0,0,0-3.5-3.31,11.34,11.34,0,0,0-5-1.08,10.33,10.33,0,0,0-4.7,1.06,8.69,8.69,0,0,0-3.35,2.81,6.81,6.81,0,0,0-1.23,3.9V63.22a3.13,3.13,0,0,1-.88,2.26,3.2,3.2,0,0,1-5.43-2.09V35.64a3,3,0,0,1,.9-2.29,3.41,3.41,0,0,1,4.53,0,3.14,3.14,0,0,1,.88,2.29v.6a13.22,13.22,0,0,1,3.16-2.34,15,15,0,0,1,7.36-1.79,15.72,15.72,0,0,1,7.63,1.83,13,13,0,0,1,5.32,5.39A17.59,17.59,0,0,1,417.61,48Z"/><path class="cls-3" d="M443.33,63.19a2.81,2.81,0,0,1-1,2.23,4,4,0,0,1-2.64.86l-1.17,0a10.06,10.06,0,0,1-5.62-1.57A11.19,11.19,0,0,1,429,60.41a13,13,0,0,1-1.4-6.13V39.05h-2.85a3,3,0,0,1-2.11-.73,2.41,2.41,0,0,1-.8-1.79,2.52,2.52,0,0,1,.8-2,2.94,2.94,0,0,1,2.11-.74h2.85v-9a3.09,3.09,0,1,1,6.18,0h0v9h5.25a3,3,0,0,1,2.1.74,2.53,2.53,0,0,1,.81,2,2.4,2.4,0,0,1-.81,1.86,3,3,0,0,1-2.1.73l-5.25,0v15.2a6.38,6.38,0,0,0,1.4,4.15,4.23,4.23,0,0,0,3.35,1.67h2.11a2.45,2.45,0,0,1,1.88.87A3.16,3.16,0,0,1,443.33,63.19Z"/><path class="cls-3" d="M462.71,66.58a23.08,23.08,0,0,1-8-1.41A15.29,15.29,0,0,1,449,61.8a2.69,2.69,0,0,1-.77-2.25,2.92,2.92,0,0,1,1.2-2.08,3.2,3.2,0,0,1,2.45-.83,3.32,3.32,0,0,1,2.06,1.09,9.85,9.85,0,0,0,3.38,2.19,12.89,12.89,0,0,0,5.17,1,10.35,10.35,0,0,0,5.48-1.18,3.62,3.62,0,0,0,1.93-3,3.75,3.75,0,0,0-1.75-3.22,17.06,17.06,0,0,0-6.65-2.22q-6.29-1.18-9.1-3.64a7.75,7.75,0,0,1-2.81-6.07,7.51,7.51,0,0,1,1.85-5.22,11.21,11.21,0,0,1,4.77-3.09,17.88,17.88,0,0,1,6.07-1,18.64,18.64,0,0,1,7.23,1.31,12.13,12.13,0,0,1,5,3.58,2.81,2.81,0,0,1,.8,2.08A2.37,2.37,0,0,1,474.24,41a3,3,0,0,1-2.34.44,4.37,4.37,0,0,1-2.29-1.11,8.51,8.51,0,0,0-3.35-2,13.33,13.33,0,0,0-4.21-.56,10.45,10.45,0,0,0-4.61.92,2.93,2.93,0,0,0-1.88,2.73,3.6,3.6,0,0,0,.59,2A4.7,4.7,0,0,0,458.56,45a29.57,29.57,0,0,0,5.05,1.41,27.05,27.05,0,0,1,7.33,2.35,9.84,9.84,0,0,1,3.91,3.35A8.21,8.21,0,0,1,476,56.43a9.16,9.16,0,0,1-1.5,5.13A10.22,10.22,0,0,1,470,65.21,17.23,17.23,0,0,1,462.71,66.58Z"/></g></g></g></g></svg>