<svg width="20" height="18" viewBox="0 0 20 18" fill="none" xmlns="http://www.w3.org/2000/svg"> <path fill-rule="evenodd" clip-rule="evenodd" d="M16.8418 1.41319C16.0934 0.562315 15.027 0.0201921 13.8468 0.000547779C11.5808 -0.0371695 9.7435 1.87762 9.7435 4.27717C9.7435 4.61772 9.7798 4.94981 9.8498 5.26861C6.4396 5.04741 3.4161 3.27162 1.3924 0.594828C1.0392 1.23625 0.8368 1.98593 0.8368 2.789C0.8368 4.30928 1.5612 5.65852 2.6622 6.45516C1.9896 6.42547 1.3569 6.22186 0.8037 5.88783C0.8033 5.90609 0.8033 5.92435 0.8033 5.94293C0.8033 8.06601 2.2177 9.8471 4.0948 10.262C3.7505 10.3596 3.388 10.4106 3.0138 10.4081C2.7494 10.4064 2.4923 10.3771 2.2418 10.3244C2.7639 12.0656 4.2792 13.3361 6.0748 13.3781C4.6705 14.5438 2.9013 15.2381 0.9788 15.2341C0.6476 15.2334 0.321 15.212 0 15.1708C1.8159 16.4168 3.9727 17.1422 6.2899 17.1429C13.8372 17.1448 17.9645 10.5768 17.9645 4.8799C17.9645 4.69299 17.9604 4.50708 17.9526 4.32207C18.7543 3.7247 19.4499 2.97573 20 2.12047C19.2642 2.45215 18.4733 2.67244 17.6434 2.76485C18.4905 2.2435 19.1412 1.40911 19.4475 0.408517C18.6546 0.889352 17.7765 1.23417 16.8418 1.41319Z" fill="#1E2137"/> </svg>