<svg width="314" height="314" viewBox="0 0 314 314" fill="none" xmlns="http://www.w3.org/2000/svg">
<path d="M145.931 112.88L145.927 112.878C142.563 110.691 138.234 110.51 134.707 112.437C131.157 114.357 128.95 118.073 128.95 122.104V201.996C128.95 206.025 131.152 209.77 134.728 211.682C138.212 213.553 142.524 213.437 145.913 211.256L145.922 211.25L145.931 211.244L207.296 171.27L207.302 171.267C210.392 169.247 212.287 165.788 212.287 162.062C212.287 158.329 210.397 154.865 207.302 152.842L207.296 152.838L145.931 112.88Z" fill="#406AE8" stroke="#406AE8" stroke-width="8.0492"/>
<mask id="path-2-outside-1_3051_78216" maskUnits="userSpaceOnUse" x="0" y="0.0593262" width="314" height="314" fill="black">
<rect fill="white" y="0.0593262" width="314" height="314"/>
<path d="M133.805 5.81834C128.757 8.45977 126.563 12.2186 124.802 16.4308C123.388 19.8052 122.52 22.2778 120.13 25.1187C117.743 27.9593 113.633 31.3226 105.175 34.907C96.7393 38.4888 91.4536 39.1471 87.7505 38.8871C84.0497 38.6299 81.6462 37.4682 78.2383 36.1406C74.0314 34.5004 69.7883 33.4771 64.3844 35.2693C58.9798 37.0616 53.7082 41.0528 46.5001 48.399C39.2729 55.7451 35.3509 61.0641 33.6501 66.5013C31.9492 71.939 33.1357 76.3066 34.8007 80.3695C36.1892 83.7548 37.3592 86.1335 37.68 89.8313C38.0036 93.5293 37.4449 98.8343 34.0125 107.34C30.5717 115.848 27.3052 120.005 24.5003 122.441C21.6958 124.878 19.1622 125.774 15.8124 127.246C12.4629 128.714 8.20072 130.827 5.38262 136.428C2.82418 141.518 1.91977 148.078 2.00552 158.378C2.09955 168.679 3.10633 175.198 5.75605 180.243C8.40576 185.288 12.3609 187.586 16.3551 189.256C19.7322 190.67 22.2491 191.48 25.0926 193.867C27.9359 196.254 31.3074 200.378 34.8808 208.822C38.4544 217.269 39.0739 222.588 38.8139 226.294C38.5539 230.001 37.395 232.393 36.0674 235.806C34.7398 239.217 33.249 243.675 35.2459 249.66C37.0465 255.065 41.0681 260.325 48.4223 267.545C55.738 274.741 61.0648 278.699 66.4864 280.395C71.9186 282.093 76.2414 280.939 80.3404 279.258C83.7202 277.872 86.0768 276.699 89.7661 276.378C93.4554 276.058 98.733 276.594 107.227 280.032C115.743 283.47 119.975 286.742 122.411 289.544C124.848 292.346 125.7 294.838 127.166 298.185C128.632 301.532 130.875 305.904 136.362 308.665C141.449 311.223 147.971 312.095 158.263 312.003C168.573 311.909 175.129 310.897 180.176 308.253C185.694 305.362 187.769 301.062 189.18 297.69C190.593 294.316 191.414 291.796 193.801 288.952C196.188 286.112 200.348 282.749 208.806 279.164C217.242 275.582 222.527 274.924 226.231 275.184C229.931 275.441 232.285 276.603 235.692 277.931C239.1 279.258 243.5 280.793 249.597 278.802C255.009 277.034 260.273 273.018 267.481 265.672C274.708 258.329 278.583 253.007 280.281 247.57C281.982 242.132 280.862 237.803 279.18 233.702C277.792 230.316 276.586 227.938 276.265 224.24C275.942 220.542 276.475 215.27 279.919 206.768C283.36 198.26 286.673 194.066 289.478 191.63C292.28 189.193 294.766 188.344 298.116 186.875C301.465 185.407 305.824 183.153 308.596 177.643C311.154 172.554 312.022 166.029 311.934 155.729C311.84 145.429 310.833 138.874 308.183 133.829C305.534 128.784 301.628 126.51 297.571 124.815C294.194 123.402 291.677 122.591 288.833 120.204C285.99 117.817 282.668 113.693 279.092 105.249C275.518 96.8021 274.849 91.5306 275.112 87.8246C275.372 84.1183 276.531 81.712 277.858 78.3018C279.186 74.8917 280.693 70.2943 278.73 64.3976C276.929 58.9931 272.907 53.7462 265.553 46.5246C258.218 39.3059 252.921 35.4087 247.489 33.7101C241.955 31.9787 237.659 33.1597 233.635 34.8109C230.255 36.1966 227.899 37.3694 224.209 37.6902C220.52 38.011 215.196 37.4745 206.701 34.0364C198.185 30.5957 194.003 27.3264 191.563 24.5243C189.127 21.7225 188.275 19.2194 186.809 15.8725C185.34 12.5258 183.202 8.26647 177.613 5.45334C172.526 2.89489 166.004 1.9766 155.709 2.06511C145.406 2.15639 138.851 3.17698 133.803 5.81841L133.805 5.81834ZM245.714 267.051C243.574 267.762 242.998 267.491 240.221 266.41C237.444 265.328 233.105 263.259 227.092 262.839C221.081 262.421 213.653 263.658 203.958 267.776C194.244 271.892 188.223 276.373 184.345 280.989C180.465 285.605 178.899 290.135 177.751 292.882C176.601 295.631 176.415 296.226 174.413 297.274C172.408 298.322 167.617 299.528 158.186 299.608C148.776 299.703 143.961 298.602 141.947 297.589C139.933 296.577 139.709 295.977 138.512 293.244C137.314 290.514 135.707 285.948 131.749 281.398C127.791 276.848 121.687 272.498 111.904 268.548C102.143 264.596 94.7194 263.501 88.7206 264.023C82.7214 264.546 78.3928 266.692 75.6406 267.824C72.8886 268.952 72.3465 269.223 70.1946 268.551C68.0427 267.879 63.7722 265.326 57.065 258.727C50.3384 252.125 47.7249 247.929 47.0112 245.78C46.2948 243.631 46.5742 243.072 47.6529 240.298C48.7315 237.524 50.7866 233.181 51.2097 227.168C51.6329 221.158 50.427 213.726 46.3225 204.021C42.2151 194.315 37.7259 188.283 33.11 184.405C28.491 180.528 23.9215 178.976 21.1671 177.823C18.4127 176.669 17.79 176.484 16.7389 174.484C15.6879 172.482 14.482 167.661 14.4045 158.245C14.3354 148.83 15.4473 144.026 16.4595 142.007C17.4746 139.988 18.072 139.78 20.8019 138.583C23.5319 137.385 28.0483 135.772 32.5983 131.817C37.1483 127.862 41.5433 121.736 45.4957 111.961C49.4481 102.186 50.5461 94.7352 50.0206 88.728C49.4951 82.7233 47.3516 78.4526 46.2203 75.6954C45.089 72.9382 44.8207 72.3598 45.4957 70.2024C46.1706 68.045 48.7234 63.8021 55.3342 57.0869C61.9225 50.3741 66.1293 47.7299 68.2705 47.019C70.4113 46.3109 70.9866 46.5764 73.7635 47.6607C76.5405 48.7449 80.869 50.811 86.879 51.2314C92.892 51.6518 100.332 50.4598 110.026 46.3442C119.74 42.2285 125.762 37.7341 129.639 33.1175C133.52 28.5013 135.035 23.9346 136.186 21.1852C137.336 18.436 137.569 17.8413 139.574 16.793C141.579 15.7448 146.37 14.5389 155.801 14.4586C165.211 14.3757 170.026 15.5042 172.04 16.5164C174.054 17.5287 174.267 18.1289 175.464 20.8616C176.662 23.5915 178.283 28.1221 182.241 32.6721C186.199 37.222 192.303 41.6085 202.086 45.5581C211.846 49.5105 219.27 50.5699 225.269 50.0471C231.268 49.5243 235.558 47.4251 238.313 46.2966C241.065 45.1681 241.643 44.85 243.795 45.5221C245.947 46.1942 250.167 48.7471 256.875 55.3465C263.602 61.9486 266.262 66.194 266.979 68.343C267.695 70.4921 267.416 71.0508 266.337 73.825C265.259 76.5992 263.204 80.9417 262.78 86.9546C262.357 92.9648 263.563 100.386 267.668 110.091C271.775 119.797 276.264 125.84 280.88 129.718C285.499 133.596 290.069 135.101 292.823 136.251C295.578 137.404 296.2 137.59 297.251 139.589C298.302 141.592 299.458 146.413 299.539 155.828C299.608 165.243 298.546 170.084 297.531 172.102C296.516 174.121 295.871 174.293 293.138 175.491C290.409 176.688 285.892 178.348 281.342 182.303C276.792 186.258 272.397 192.338 268.445 202.112C264.492 211.884 263.444 219.338 263.967 225.345C264.492 231.35 266.586 235.668 267.717 238.426C268.849 241.183 269.167 241.703 268.492 243.858C267.817 246.015 265.264 250.272 258.637 256.987C252.032 263.7 247.861 266.344 245.721 267.055L245.714 267.051ZM227.122 87.0899C208.87 68.8601 184.229 58.4714 156.96 58.0734C129.714 58.4856 105.061 68.8742 86.8425 87.0899C68.3861 105.621 57.8841 130.755 57.8395 157.064C57.8395 183.433 68.3444 208.6 86.8425 227.195C105.438 245.809 130.74 256.212 156.999 256.212C183.258 256.212 208.511 245.809 227.125 227.195C245.639 208.597 256.097 183.433 256.092 156.881C255.951 130.522 245.515 105.535 227.125 87.0871L227.122 87.0899ZM150.764 70.6691C150.764 70.6691 153.514 70.6884 156.96 70.6691C160.381 70.6553 163.167 70.6691 163.167 70.6691C183.897 72.1488 203.568 81.0302 218.365 95.8245C233.063 110.581 241.941 130.124 243.46 150.796C243.46 150.796 243.448 153.44 243.46 156.881C243.473 160.302 243.484 163.188 243.484 163.188C242.032 183.971 233.138 203.605 218.365 218.436C203.565 233.231 183.896 242.112 163.166 243.591C163.166 243.591 160.401 243.871 156.999 243.858C153.572 243.838 150.764 243.591 150.764 243.591C130.05 242.1 110.399 233.219 95.612 218.436C80.8397 203.605 71.9138 183.967 70.4567 163.188C70.4567 163.188 70.4428 160.466 70.4567 157.064C70.4705 153.642 70.4816 150.796 70.4816 150.796C72.0055 130.125 80.917 110.581 95.6122 95.8245C110.399 81.0408 130.051 72.1596 150.764 70.6691Z"/>
</mask>
<path d="M133.805 5.81834C128.757 8.45977 126.563 12.2186 124.802 16.4308C123.388 19.8052 122.52 22.2778 120.13 25.1187C117.743 27.9593 113.633 31.3226 105.175 34.907C96.7393 38.4888 91.4536 39.1471 87.7505 38.8871C84.0497 38.6299 81.6462 37.4682 78.2383 36.1406C74.0314 34.5004 69.7883 33.4771 64.3844 35.2693C58.9798 37.0616 53.7082 41.0528 46.5001 48.399C39.2729 55.7451 35.3509 61.0641 33.6501 66.5013C31.9492 71.939 33.1357 76.3066 34.8007 80.3695C36.1892 83.7548 37.3592 86.1335 37.68 89.8313C38.0036 93.5293 37.4449 98.8343 34.0125 107.34C30.5717 115.848 27.3052 120.005 24.5003 122.441C21.6958 124.878 19.1622 125.774 15.8124 127.246C12.4629 128.714 8.20072 130.827 5.38262 136.428C2.82418 141.518 1.91977 148.078 2.00552 158.378C2.09955 168.679 3.10633 175.198 5.75605 180.243C8.40576 185.288 12.3609 187.586 16.3551 189.256C19.7322 190.67 22.2491 191.48 25.0926 193.867C27.9359 196.254 31.3074 200.378 34.8808 208.822C38.4544 217.269 39.0739 222.588 38.8139 226.294C38.5539 230.001 37.395 232.393 36.0674 235.806C34.7398 239.217 33.249 243.675 35.2459 249.66C37.0465 255.065 41.0681 260.325 48.4223 267.545C55.738 274.741 61.0648 278.699 66.4864 280.395C71.9186 282.093 76.2414 280.939 80.3404 279.258C83.7202 277.872 86.0768 276.699 89.7661 276.378C93.4554 276.058 98.733 276.594 107.227 280.032C115.743 283.47 119.975 286.742 122.411 289.544C124.848 292.346 125.7 294.838 127.166 298.185C128.632 301.532 130.875 305.904 136.362 308.665C141.449 311.223 147.971 312.095 158.263 312.003C168.573 311.909 175.129 310.897 180.176 308.253C185.694 305.362 187.769 301.062 189.18 297.69C190.593 294.316 191.414 291.796 193.801 288.952C196.188 286.112 200.348 282.749 208.806 279.164C217.242 275.582 222.527 274.924 226.231 275.184C229.931 275.441 232.285 276.603 235.692 277.931C239.1 279.258 243.5 280.793 249.597 278.802C255.009 277.034 260.273 273.018 267.481 265.672C274.708 258.329 278.583 253.007 280.281 247.57C281.982 242.132 280.862 237.803 279.18 233.702C277.792 230.316 276.586 227.938 276.265 224.24C275.942 220.542 276.475 215.27 279.919 206.768C283.36 198.26 286.673 194.066 289.478 191.63C292.28 189.193 294.766 188.344 298.116 186.875C301.465 185.407 305.824 183.153 308.596 177.643C311.154 172.554 312.022 166.029 311.934 155.729C311.84 145.429 310.833 138.874 308.183 133.829C305.534 128.784 301.628 126.51 297.571 124.815C294.194 123.402 291.677 122.591 288.833 120.204C285.99 117.817 282.668 113.693 279.092 105.249C275.518 96.8021 274.849 91.5306 275.112 87.8246C275.372 84.1183 276.531 81.712 277.858 78.3018C279.186 74.8917 280.693 70.2943 278.73 64.3976C276.929 58.9931 272.907 53.7462 265.553 46.5246C258.218 39.3059 252.921 35.4087 247.489 33.7101C241.955 31.9787 237.659 33.1597 233.635 34.8109C230.255 36.1966 227.899 37.3694 224.209 37.6902C220.52 38.011 215.196 37.4745 206.701 34.0364C198.185 30.5957 194.003 27.3264 191.563 24.5243C189.127 21.7225 188.275 19.2194 186.809 15.8725C185.34 12.5258 183.202 8.26647 177.613 5.45334C172.526 2.89489 166.004 1.9766 155.709 2.06511C145.406 2.15639 138.851 3.17698 133.803 5.81841L133.805 5.81834ZM245.714 267.051C243.574 267.762 242.998 267.491 240.221 266.41C237.444 265.328 233.105 263.259 227.092 262.839C221.081 262.421 213.653 263.658 203.958 267.776C194.244 271.892 188.223 276.373 184.345 280.989C180.465 285.605 178.899 290.135 177.751 292.882C176.601 295.631 176.415 296.226 174.413 297.274C172.408 298.322 167.617 299.528 158.186 299.608C148.776 299.703 143.961 298.602 141.947 297.589C139.933 296.577 139.709 295.977 138.512 293.244C137.314 290.514 135.707 285.948 131.749 281.398C127.791 276.848 121.687 272.498 111.904 268.548C102.143 264.596 94.7194 263.501 88.7206 264.023C82.7214 264.546 78.3928 266.692 75.6406 267.824C72.8886 268.952 72.3465 269.223 70.1946 268.551C68.0427 267.879 63.7722 265.326 57.065 258.727C50.3384 252.125 47.7249 247.929 47.0112 245.78C46.2948 243.631 46.5742 243.072 47.6529 240.298C48.7315 237.524 50.7866 233.181 51.2097 227.168C51.6329 221.158 50.427 213.726 46.3225 204.021C42.2151 194.315 37.7259 188.283 33.11 184.405C28.491 180.528 23.9215 178.976 21.1671 177.823C18.4127 176.669 17.79 176.484 16.7389 174.484C15.6879 172.482 14.482 167.661 14.4045 158.245C14.3354 148.83 15.4473 144.026 16.4595 142.007C17.4746 139.988 18.072 139.78 20.8019 138.583C23.5319 137.385 28.0483 135.772 32.5983 131.817C37.1483 127.862 41.5433 121.736 45.4957 111.961C49.4481 102.186 50.5461 94.7352 50.0206 88.728C49.4951 82.7233 47.3516 78.4526 46.2203 75.6954C45.089 72.9382 44.8207 72.3598 45.4957 70.2024C46.1706 68.045 48.7234 63.8021 55.3342 57.0869C61.9225 50.3741 66.1293 47.7299 68.2705 47.019C70.4113 46.3109 70.9866 46.5764 73.7635 47.6607C76.5405 48.7449 80.869 50.811 86.879 51.2314C92.892 51.6518 100.332 50.4598 110.026 46.3442C119.74 42.2285 125.762 37.7341 129.639 33.1175C133.52 28.5013 135.035 23.9346 136.186 21.1852C137.336 18.436 137.569 17.8413 139.574 16.793C141.579 15.7448 146.37 14.5389 155.801 14.4586C165.211 14.3757 170.026 15.5042 172.04 16.5164C174.054 17.5287 174.267 18.1289 175.464 20.8616C176.662 23.5915 178.283 28.1221 182.241 32.6721C186.199 37.222 192.303 41.6085 202.086 45.5581C211.846 49.5105 219.27 50.5699 225.269 50.0471C231.268 49.5243 235.558 47.4251 238.313 46.2966C241.065 45.1681 241.643 44.85 243.795 45.5221C245.947 46.1942 250.167 48.7471 256.875 55.3465C263.602 61.9486 266.262 66.194 266.979 68.343C267.695 70.4921 267.416 71.0508 266.337 73.825C265.259 76.5992 263.204 80.9417 262.78 86.9546C262.357 92.9648 263.563 100.386 267.668 110.091C271.775 119.797 276.264 125.84 280.88 129.718C285.499 133.596 290.069 135.101 292.823 136.251C295.578 137.404 296.2 137.59 297.251 139.589C298.302 141.592 299.458 146.413 299.539 155.828C299.608 165.243 298.546 170.084 297.531 172.102C296.516 174.121 295.871 174.293 293.138 175.491C290.409 176.688 285.892 178.348 281.342 182.303C276.792 186.258 272.397 192.338 268.445 202.112C264.492 211.884 263.444 219.338 263.967 225.345C264.492 231.35 266.586 235.668 267.717 238.426C268.849 241.183 269.167 241.703 268.492 243.858C267.817 246.015 265.264 250.272 258.637 256.987C252.032 263.7 247.861 266.344 245.721 267.055L245.714 267.051ZM227.122 87.0899C208.87 68.8601 184.229 58.4714 156.96 58.0734C129.714 58.4856 105.061 68.8742 86.8425 87.0899C68.3861 105.621 57.8841 130.755 57.8395 157.064C57.8395 183.433 68.3444 208.6 86.8425 227.195C105.438 245.809 130.74 256.212 156.999 256.212C183.258 256.212 208.511 245.809 227.125 227.195C245.639 208.597 256.097 183.433 256.092 156.881C255.951 130.522 245.515 105.535 227.125 87.0871L227.122 87.0899ZM150.764 70.6691C150.764 70.6691 153.514 70.6884 156.96 70.6691C160.381 70.6553 163.167 70.6691 163.167 70.6691C183.897 72.1488 203.568 81.0302 218.365 95.8245C233.063 110.581 241.941 130.124 243.46 150.796C243.46 150.796 243.448 153.44 243.46 156.881C243.473 160.302 243.484 163.188 243.484 163.188C242.032 183.971 233.138 203.605 218.365 218.436C203.565 233.231 183.896 242.112 163.166 243.591C163.166 243.591 160.401 243.871 156.999 243.858C153.572 243.838 150.764 243.591 150.764 243.591C130.05 242.1 110.399 233.219 95.612 218.436C80.8397 203.605 71.9138 183.967 70.4567 163.188C70.4567 163.188 70.4428 160.466 70.4567 157.064C70.4705 153.642 70.4816 150.796 70.4816 150.796C72.0055 130.125 80.917 110.581 95.6122 95.8245C110.399 81.0408 130.051 72.1596 150.764 70.6691Z" fill="#406AE8"/>
<path d="M133.805 5.81834C128.757 8.45977 126.563 12.2186 124.802 16.4308C123.388 19.8052 122.52 22.2778 120.13 25.1187C117.743 27.9593 113.633 31.3226 105.175 34.907C96.7393 38.4888 91.4536 39.1471 87.7505 38.8871C84.0497 38.6299 81.6462 37.4682 78.2383 36.1406C74.0314 34.5004 69.7883 33.4771 64.3844 35.2693C58.9798 37.0616 53.7082 41.0528 46.5001 48.399C39.2729 55.7451 35.3509 61.0641 33.6501 66.5013C31.9492 71.939 33.1357 76.3066 34.8007 80.3695C36.1892 83.7548 37.3592 86.1335 37.68 89.8313C38.0036 93.5293 37.4449 98.8343 34.0125 107.34C30.5717 115.848 27.3052 120.005 24.5003 122.441C21.6958 124.878 19.1622 125.774 15.8124 127.246C12.4629 128.714 8.20072 130.827 5.38262 136.428C2.82418 141.518 1.91977 148.078 2.00552 158.378C2.09955 168.679 3.10633 175.198 5.75605 180.243C8.40576 185.288 12.3609 187.586 16.3551 189.256C19.7322 190.67 22.2491 191.48 25.0926 193.867C27.9359 196.254 31.3074 200.378 34.8808 208.822C38.4544 217.269 39.0739 222.588 38.8139 226.294C38.5539 230.001 37.395 232.393 36.0674 235.806C34.7398 239.217 33.249 243.675 35.2459 249.66C37.0465 255.065 41.0681 260.325 48.4223 267.545C55.738 274.741 61.0648 278.699 66.4864 280.395C71.9186 282.093 76.2414 280.939 80.3404 279.258C83.7202 277.872 86.0768 276.699 89.7661 276.378C93.4554 276.058 98.733 276.594 107.227 280.032C115.743 283.47 119.975 286.742 122.411 289.544C124.848 292.346 125.7 294.838 127.166 298.185C128.632 301.532 130.875 305.904 136.362 308.665C141.449 311.223 147.971 312.095 158.263 312.003C168.573 311.909 175.129 310.897 180.176 308.253C185.694 305.362 187.769 301.062 189.18 297.69C190.593 294.316 191.414 291.796 193.801 288.952C196.188 286.112 200.348 282.749 208.806 279.164C217.242 275.582 222.527 274.924 226.231 275.184C229.931 275.441 232.285 276.603 235.692 277.931C239.1 279.258 243.5 280.793 249.597 278.802C255.009 277.034 260.273 273.018 267.481 265.672C274.708 258.329 278.583 253.007 280.281 247.57C281.982 242.132 280.862 237.803 279.18 233.702C277.792 230.316 276.586 227.938 276.265 224.24C275.942 220.542 276.475 215.27 279.919 206.768C283.36 198.26 286.673 194.066 289.478 191.63C292.28 189.193 294.766 188.344 298.116 186.875C301.465 185.407 305.824 183.153 308.596 177.643C311.154 172.554 312.022 166.029 311.934 155.729C311.84 145.429 310.833 138.874 308.183 133.829C305.534 128.784 301.628 126.51 297.571 124.815C294.194 123.402 291.677 122.591 288.833 120.204C285.99 117.817 282.668 113.693 279.092 105.249C275.518 96.8021 274.849 91.5306 275.112 87.8246C275.372 84.1183 276.531 81.712 277.858 78.3018C279.186 74.8917 280.693 70.2943 278.73 64.3976C276.929 58.9931 272.907 53.7462 265.553 46.5246C258.218 39.3059 252.921 35.4087 247.489 33.7101C241.955 31.9787 237.659 33.1597 233.635 34.8109C230.255 36.1966 227.899 37.3694 224.209 37.6902C220.52 38.011 215.196 37.4745 206.701 34.0364C198.185 30.5957 194.003 27.3264 191.563 24.5243C189.127 21.7225 188.275 19.2194 186.809 15.8725C185.34 12.5258 183.202 8.26647 177.613 5.45334C172.526 2.89489 166.004 1.9766 155.709 2.06511C145.406 2.15639 138.851 3.17698 133.803 5.81841L133.805 5.81834ZM245.714 267.051C243.574 267.762 242.998 267.491 240.221 266.41C237.444 265.328 233.105 263.259 227.092 262.839C221.081 262.421 213.653 263.658 203.958 267.776C194.244 271.892 188.223 276.373 184.345 280.989C180.465 285.605 178.899 290.135 177.751 292.882C176.601 295.631 176.415 296.226 174.413 297.274C172.408 298.322 167.617 299.528 158.186 299.608C148.776 299.703 143.961 298.602 141.947 297.589C139.933 296.577 139.709 295.977 138.512 293.244C137.314 290.514 135.707 285.948 131.749 281.398C127.791 276.848 121.687 272.498 111.904 268.548C102.143 264.596 94.7194 263.501 88.7206 264.023C82.7214 264.546 78.3928 266.692 75.6406 267.824C72.8886 268.952 72.3465 269.223 70.1946 268.551C68.0427 267.879 63.7722 265.326 57.065 258.727C50.3384 252.125 47.7249 247.929 47.0112 245.78C46.2948 243.631 46.5742 243.072 47.6529 240.298C48.7315 237.524 50.7866 233.181 51.2097 227.168C51.6329 221.158 50.427 213.726 46.3225 204.021C42.2151 194.315 37.7259 188.283 33.11 184.405C28.491 180.528 23.9215 178.976 21.1671 177.823C18.4127 176.669 17.79 176.484 16.7389 174.484C15.6879 172.482 14.482 167.661 14.4045 158.245C14.3354 148.83 15.4473 144.026 16.4595 142.007C17.4746 139.988 18.072 139.78 20.8019 138.583C23.5319 137.385 28.0483 135.772 32.5983 131.817C37.1483 127.862 41.5433 121.736 45.4957 111.961C49.4481 102.186 50.5461 94.7352 50.0206 88.728C49.4951 82.7233 47.3516 78.4526 46.2203 75.6954C45.089 72.9382 44.8207 72.3598 45.4957 70.2024C46.1706 68.045 48.7234 63.8021 55.3342 57.0869C61.9225 50.3741 66.1293 47.7299 68.2705 47.019C70.4113 46.3109 70.9866 46.5764 73.7635 47.6607C76.5405 48.7449 80.869 50.811 86.879 51.2314C92.892 51.6518 100.332 50.4598 110.026 46.3442C119.74 42.2285 125.762 37.7341 129.639 33.1175C133.52 28.5013 135.035 23.9346 136.186 21.1852C137.336 18.436 137.569 17.8413 139.574 16.793C141.579 15.7448 146.37 14.5389 155.801 14.4586C165.211 14.3757 170.026 15.5042 172.04 16.5164C174.054 17.5287 174.267 18.1289 175.464 20.8616C176.662 23.5915 178.283 28.1221 182.241 32.6721C186.199 37.222 192.303 41.6085 202.086 45.5581C211.846 49.5105 219.27 50.5699 225.269 50.0471C231.268 49.5243 235.558 47.4251 238.313 46.2966C241.065 45.1681 241.643 44.85 243.795 45.5221C245.947 46.1942 250.167 48.7471 256.875 55.3465C263.602 61.9486 266.262 66.194 266.979 68.343C267.695 70.4921 267.416 71.0508 266.337 73.825C265.259 76.5992 263.204 80.9417 262.78 86.9546C262.357 92.9648 263.563 100.386 267.668 110.091C271.775 119.797 276.264 125.84 280.88 129.718C285.499 133.596 290.069 135.101 292.823 136.251C295.578 137.404 296.2 137.59 297.251 139.589C298.302 141.592 299.458 146.413 299.539 155.828C299.608 165.243 298.546 170.084 297.531 172.102C296.516 174.121 295.871 174.293 293.138 175.491C290.409 176.688 285.892 178.348 281.342 182.303C276.792 186.258 272.397 192.338 268.445 202.112C264.492 211.884 263.444 219.338 263.967 225.345C264.492 231.35 266.586 235.668 267.717 238.426C268.849 241.183 269.167 241.703 268.492 243.858C267.817 246.015 265.264 250.272 258.637 256.987C252.032 263.7 247.861 266.344 245.721 267.055L245.714 267.051ZM227.122 87.0899C208.87 68.8601 184.229 58.4714 156.96 58.0734C129.714 58.4856 105.061 68.8742 86.8425 87.0899C68.3861 105.621 57.8841 130.755 57.8395 157.064C57.8395 183.433 68.3444 208.6 86.8425 227.195C105.438 245.809 130.74 256.212 156.999 256.212C183.258 256.212 208.511 245.809 227.125 227.195C245.639 208.597 256.097 183.433 256.092 156.881C255.951 130.522 245.515 105.535 227.125 87.0871L227.122 87.0899ZM150.764 70.6691C150.764 70.6691 153.514 70.6884 156.96 70.6691C160.381 70.6553 163.167 70.6691 163.167 70.6691C183.897 72.1488 203.568 81.0302 218.365 95.8245C233.063 110.581 241.941 130.124 243.46 150.796C243.46 150.796 243.448 153.44 243.46 156.881C243.473 160.302 243.484 163.188 243.484 163.188C242.032 183.971 233.138 203.605 218.365 218.436C203.565 233.231 183.896 242.112 163.166 243.591C163.166 243.591 160.401 243.871 156.999 243.858C153.572 243.838 150.764 243.591 150.764 243.591C130.05 242.1 110.399 233.219 95.612 218.436C80.8397 203.605 71.9138 183.967 70.4567 163.188C70.4567 163.188 70.4428 160.466 70.4567 157.064C70.4705 153.642 70.4816 150.796 70.4816 150.796C72.0055 130.125 80.917 110.581 95.6122 95.8245C110.399 81.0408 130.051 72.1596 150.764 70.6691Z" stroke="#406AE8" stroke-width="2.66831" mask="url(#path-2-outside-1_3051_78216)"/>
</svg>
